<svg width="179" height="113" viewBox="0 0 179 113" fill="none" xmlns="http://www.w3.org/2000/svg">
<path d="M69.7363 107.566C73.0322 106.543 75.7063 109.676 78.94 109.551C82.0286 109.425 84.4746 106.731 85.3038 103.89C85.8842 101.947 85.3867 99.8375 85.5318 97.8322C85.6976 95.3256 86.4232 95.1376 87.8949 93.4457C91.1287 89.7484 90.5897 85.4245 88.8692 81.0171C86.6719 75.3981 82.5676 69.6538 81.8628 64.9122C81.8628 64.9122 81.3031 59.1679 81.158 56.4106C81.0129 53.6533 80.2666 49.789 78.7534 46.9899C78.7534 46.9899 78.401 43.606 77.4475 42.0603C76.494 40.5354 75.8306 38.9479 74.5454 37.1724C73.2602 35.376 72.0994 34.4152 71.1459 33.4961C70.2338 32.5979 69.2181 31.637 69.1559 31.5743C59.7864 22.6341 46.1881 20.9004 34.953 27.3131C32.2789 28.838 29.6049 30.1121 27.0966 31.9712C24.0702 34.2063 22.101 37.2977 19.8829 40.2848C18.3283 42.3736 17.354 44.6504 16.9601 47.2197C16.5456 49.8099 17.0638 52.7342 15.9444 55.1782C13.6642 60.1496 8.83436 62.5309 7.09313 68.0454C5.31043 73.7897 5.51772 80.0562 2.63638 85.4663C-0.597349 91.5239 -1.28141 98.2291 3.0095 103.932C5.35189 107.044 14.369 116.13 18.9294 111.535C23.4483 106.981 28.9001 106.96 30.7035 104.454C32.5069 101.947 32.4862 96.558 32.4862 96.558" fill="#2B3021"/>
<path d="M65.9845 29.9658C63.4348 28.7125 60.5327 28.6916 57.8172 27.8978C51.6192 26.0597 45.8151 26.6863 40.0732 29.5271C36.4663 31.3026 33.7715 34.3106 33.274 38.4256C32.6107 44.1072 34.3727 49.768 34.1446 55.4496C33.9995 58.8335 32.0096 60.4628 30.1854 63.053C28.5685 65.3507 27.8223 70.1759 28.9624 72.766C29.2941 73.518 30.2683 74.458 29.3562 75.2309C28.071 76.2962 27.7186 73.8522 26.2054 75.0429C25.0653 75.9411 24.858 77.5286 25.2312 78.8446C25.5006 79.7636 26.0396 80.641 26.6615 81.3512C26.8066 81.5183 28.4649 82.8133 28.4649 82.8133L28.1954 89.3305C28.1954 89.3305 28.4649 95.1375 38.477 103.952C48.4891 112.767 45.2554 110.929 55.8272 112.496C55.8272 112.496 61.0095 112.663 61.6314 111.827C62.274 111.013 65.0724 109.321 65.4455 108.485C65.8186 107.65 66.3576 108.422 66.8136 107.775C67.2697 107.127 67.5391 105.832 67.5391 105.832L68.9073 102.26C68.9073 102.26 70.7314 99.6911 71.9959 97.9574C71.9959 97.9574 75.8307 92.5473 76.6392 91.0643C77.4476 89.6021 79.3754 79.4085 79.3754 78.0299C79.3754 76.6513 79.4583 72.1603 79.562 70.8652C79.6449 69.5701 79.1889 68.6719 79.023 66.9173C78.8365 65.1627 78.1109 64.8911 78.1939 63.8885C78.2768 62.8858 78.4633 55.3451 78.4633 52.9639C78.4633 50.5826 77.1781 46.0707 76.8257 44.149C76.4526 42.2273 73.6335 37.7154 72.6385 36.5247C70.8558 34.415 69.2389 31.992 66.8965 30.4671C66.6063 30.3 66.2954 30.1329 65.9845 29.9658Z" fill="white"/>
<path d="M69.1974 85.0067C68.306 84.7142 67.5183 84.0876 66.5855 83.9205C65.7978 83.7743 65.0101 84.004 64.2224 84.0249C63.1445 84.0458 62.0459 84.0249 60.968 83.8996C60.3046 83.816 59.6413 83.6907 58.978 83.6907C58.3146 83.6907 57.672 83.9205 57.0294 83.9414C55.6406 83.9832 54.4798 83.3983 53.0702 83.6907C51.9508 83.9205 50.9973 83.5863 50.4998 82.5001C50.3547 82.1867 52.5727 82.2703 52.7178 82.3121C53.6299 82.5001 54.4798 82.8761 55.4126 82.9387C56.4283 83.0223 57.3611 83.4818 58.3976 83.2103C59.0816 83.0223 59.6828 82.6254 60.3668 82.4583C61.1131 82.2703 61.8593 82.4583 62.6056 82.6463C63.1445 82.7716 63.642 83.1267 64.2017 83.1058C64.7406 83.0849 65.1967 82.7507 65.6735 82.5419C66.4819 82.1867 67.1038 82.8343 67.85 83.0223C67.4147 82.1032 67.083 81.393 67.2696 80.3486C67.4147 79.4713 67.8915 78.2806 67.1452 77.5286C66.5441 76.902 65.5076 77.0691 64.7821 76.6722C64.8443 78.0091 65.2796 80.4948 64.3468 81.6228C63.87 82.2076 63.0201 81.7063 62.7092 81.2259C62.2532 80.5157 62.8128 79.6384 63.0823 78.9491C63.6627 77.3824 63.7042 76.0456 62.1702 75.1056C61.3411 74.6043 60.4497 74.8967 59.5584 74.9385C58.667 74.9803 57.983 74.646 57.2782 74.103C56.4283 73.4554 56.0552 72.6408 56.0759 71.5546C56.0759 71.5546 58.9365 73.727 60.9472 73.6434C62.9579 73.5599 64.6785 73.7687 65.8186 73.0794C65.8186 73.0794 67.4976 72.3483 67.9536 71.3457C68.4097 70.3431 67.1245 67.8573 67.1245 67.8573C67.1245 67.8573 66.2953 65.9356 66.2953 64.9121C66.2953 63.9094 66.4819 60.5255 65.6527 58.6038C65.6527 58.6038 66.9379 53.1102 66.4819 53.7577C66.4819 53.7577 69.301 53.1728 70.296 52.5253C71.291 51.8777 72.4726 51.4182 73.1152 51.6062C73.053 51.5853 73.1359 48.2849 73.1359 47.9089C73.1774 45.0681 73.5505 42.29 72.8872 39.4909C72.286 36.9217 70.9801 34.5822 69.2803 32.5978C70.6484 34.248 71.6434 35.355 72.6591 36.5457C73.6541 37.7363 76.494 42.2273 76.8464 44.1699C77.2195 46.0917 78.484 50.6035 78.484 52.9848C78.484 55.3661 78.2974 62.9068 78.2145 63.9094C78.1316 64.9121 78.8571 65.2045 79.0437 66.9382C79.2302 68.672 79.6863 69.5911 79.5826 70.8861C79.4997 72.1603 79.3961 76.6722 79.3961 78.0509C79.3961 79.4295 77.489 89.623 76.6598 91.0852C75.1673 93.7798 73.3225 96.2446 71.8092 98.9392C70.3375 101.55 68.9279 104.224 67.1245 106.605C66.1088 107.942 64.9894 109.195 63.6835 110.261C58.978 114.125 52.7385 113.415 47.3697 111.117C45.9601 110.511 45.359 110.073 44.8408 109.53C44.8408 109.175 44.4469 108.047 46.4162 104.182C47.7428 101.571 48.1574 99.1272 47.5355 96.913C47.1831 95.6597 46.4991 94.49 45.4419 93.4038C43.5141 91.3985 45.5248 91.4194 48.033 93.9469C50.1681 96.1193 52.1996 98.5423 55.4126 98.8765C58.0037 99.1481 60.5326 98.229 63.1031 98.2081C65.0101 98.1872 67.0623 98.1872 68.845 97.4144C69.7985 96.9966 70.5862 96.2446 70.9386 95.242C71.4361 93.8633 72.2446 90.6465 72.0787 89.2052C71.9751 88.2444 71.4776 87.4715 71.1666 86.5733C71.0008 86.0929 71.0008 85.132 70.3167 85.132" fill="#A0A0A0"/>
<path d="M41.8145 60.3377C42.9753 60.463 43.9081 60.2124 44.7787 59.3977C45.8152 58.4368 46.3127 56.912 47.4942 56.1391C49.1318 55.0738 51.6193 55.1574 53.402 55.8467C54.8116 56.3898 55.6615 58.4995 55.8687 59.899C55.9517 60.5257 56.0138 60.9434 56.5943 61.2777C56.8223 60.3795 57.2576 59.4813 57.2783 58.5413C57.3612 56.5151 55.7029 54.9276 53.7958 54.6352C52.6972 54.4681 51.5986 54.4472 50.5206 54.5934C49.4635 54.7396 48.3441 54.9485 47.432 55.5334C45.8359 56.536 44.986 58.2071 43.7423 59.5648C43.2655 60.0661 42.4985 60.1706 41.8145 60.3377Z" fill="#2B3021"/>
<path d="M46.0226 60.4002C46.0226 60.4002 46.8103 60.7136 47.598 60.0869C47.598 60.0869 47.8468 61.4864 49.899 61.4864C51.9511 61.4864 52.0548 59.126 51.4536 58.5203C51.4536 58.5203 52.9047 58.395 53.5058 59.3767C54.107 60.3585 54.335 61.6953 55.9518 61.8415C55.9518 61.8415 56.2006 61.6744 55.8897 61.4864C55.2471 61.0896 54.9983 60.254 54.7496 59.5647C54.107 57.7265 51.8268 57.4132 50.1477 57.4132C47.8675 57.4132 46.7689 59.7109 46.4994 59.8989C46.2507 60.0869 45.9604 60.3167 45.9604 60.3167" fill="#2B3021"/>
<path d="M66.7303 72.5573C66.7303 72.5573 68.0363 71.868 67.9741 70.5729C67.9119 69.2779 66.4609 66.8757 66.3987 65.894C66.2328 62.886 65.0513 59.9617 65.1757 56.9746C65.2171 55.9929 65.4037 54.8231 66.0463 54.0503C66.9169 53.0058 68.7618 53.0267 69.9433 52.5672C71.9955 51.7943 74.7939 50.5828 76.4523 52.7552C77.1363 53.6743 77.6131 55.0738 77.5302 56.2226C76.5144 54.5933 74.9598 53.1938 72.9698 53.9667C71.1456 54.6769 68.5959 56.16 67.9948 58.2279C67.2486 60.8181 67.9948 63.4082 68.5545 65.9566C68.9898 67.9201 70.5445 71.2205 68.2228 72.2022L66.7303 72.5573Z" fill="#2B3021"/>
<path d="M74.7936 61.152C74.2546 59.3556 70.4819 57.7263 68.3883 59.5645C68.3883 59.5645 68.3261 62.8858 71.2696 62.5307C73.2803 62.3009 72.4719 59.6481 72.4719 59.6481C72.5548 59.9405 73.4462 60.3583 73.6535 60.6716C74.0266 61.1938 74.1717 63.032 73.5498 63.3871C73.5498 63.408 75.3325 62.9484 74.7936 61.152Z" fill="#2B3021"/>
<path d="M45.2554 54.5515C45.898 54.4471 46.4162 53.4862 46.7479 53.0058C47.4734 51.9613 48.3855 50.8751 49.6914 50.6036C51.8265 50.1858 53.4848 52.024 55.4955 52.2956C56.0759 52.3791 56.7393 52.3164 57.2575 52.6298C56.5734 53.2773 55.7857 53.6324 54.8529 53.6533C53.9408 53.6742 53.0288 53.4444 52.1167 53.4026C51.329 53.3609 50.5413 53.4235 49.795 53.6324C48.9244 53.8622 48.2196 54.5097 47.3075 54.5515C46.6235 54.5724 45.9394 54.4471 45.2554 54.5515Z" fill="#2B3021"/>
<path d="M130.804 4.77454C104.582 4.77454 83.335 23.0519 83.335 45.5904C83.335 58.0608 89.8439 69.1943 100.063 76.6932C99.6487 83.085 96.9539 90.3959 86.6516 97.9784C103.463 98.7095 114.905 90.0617 119.901 85.3201C123.404 86.0303 127.032 86.4063 130.784 86.4063C157.006 86.4063 178.253 68.1289 178.253 45.5904C178.253 23.0519 157.027 4.77454 130.804 4.77454Z" fill="#FFE01B"/>
<path d="M103.131 25.9345H104.81V29.5482H103.131C102.654 28.2532 101.825 27.6056 100.664 27.6056C99.6898 27.6056 98.9643 27.9398 98.4668 28.6291C97.9693 29.3185 97.7206 30.1331 97.7206 31.094C97.7206 32.0966 97.99 32.8904 98.5083 33.517C99.0265 34.1437 99.7106 34.4361 100.519 34.4361C101.182 34.4361 101.763 34.2063 102.26 33.7259C102.758 33.2664 103.089 32.6188 103.276 31.7833L105.224 32.7442C104.478 35.1254 102.861 36.3161 100.332 36.3161C98.5497 36.3161 97.2023 35.8147 96.311 34.833C95.3989 33.8304 94.9429 32.577 94.9429 31.0731C94.9429 29.9869 95.1709 29.0469 95.6477 28.2323C96.1244 27.4176 96.7463 26.8119 97.5547 26.3941C98.3424 25.9763 99.213 25.7883 100.167 25.7883C101.348 25.7883 102.343 26.1017 103.131 26.7492V25.9345Z" fill="#2B3021"/>
<path d="M105.515 27.6682V25.9344H110.241V27.6682H109.267V32.3054C109.267 32.9321 109.287 33.3707 109.35 33.6423C109.391 33.9138 109.536 34.1436 109.743 34.3107C109.951 34.4778 110.22 34.5822 110.552 34.5822C110.883 34.5822 111.174 34.4987 111.402 34.3316C111.63 34.1645 111.775 33.9556 111.837 33.7049C111.899 33.4543 111.941 32.9529 111.941 32.1801V27.6682H110.987V25.9344H114.926V27.6682H113.723V32.8067C113.723 33.496 113.682 34.0182 113.62 34.3316C113.557 34.6449 113.392 34.9582 113.122 35.2715C112.873 35.5849 112.5 35.8355 112.003 36.0235C111.526 36.2115 110.966 36.316 110.324 36.316C109.598 36.316 108.976 36.2115 108.458 36.0026C107.94 35.7938 107.567 35.5013 107.318 35.1462C107.069 34.7911 106.903 34.436 106.841 34.0809C106.779 33.7258 106.738 33.1409 106.738 32.3054V27.6682H105.515Z" fill="#2B3021"/>
<path d="M124.586 34.4778V36.2115H119.714V34.4778H120.979L120.502 32.7232H117.952L117.434 34.4778H118.761V36.2115H114.366V34.4778H115.589L117.517 27.6891H116.19V25.9553H122.658V27.6891H121.331L123.404 34.4778H124.586ZM120.108 31.1983L119.279 28.1068L118.388 31.1983H120.108Z" fill="#2B3021"/>
<path d="M124.606 36.2115V34.4778H125.933V27.6891H124.606V25.9553H128.773L132.421 32.3472V27.6891H131.136V25.9553H135.572V27.6891H134.183V36.2951H131.986L127.716 28.6917V34.4987H128.96V36.2324H124.606V36.2115Z" fill="#2B3021"/>
<path d="M137.562 36.2115V34.4778H139.054V27.6891H137.562V30.0703H135.862V25.9553H144.838V30.0703H143.158V27.6891H141.624V34.4778H143.117V36.2115H137.562Z" fill="#2B3021"/>
<path d="M150.766 25.7883C152.466 25.7883 153.814 26.2896 154.809 27.3132C155.783 28.3367 156.28 29.59 156.28 31.0522C156.28 32.5353 155.783 33.7677 154.809 34.7912C153.834 35.8147 152.487 36.3161 150.766 36.3161C149.004 36.3161 147.636 35.7939 146.683 34.7494C145.729 33.705 145.252 32.4726 145.252 31.0522C145.252 29.59 145.75 28.3367 146.724 27.3132C147.698 26.2896 149.046 25.7883 150.766 25.7883ZM150.766 27.6474C149.999 27.6474 149.357 27.9398 148.839 28.5247C148.32 29.1096 148.051 29.9869 148.051 31.1149C148.051 32.1175 148.32 32.9322 148.839 33.5379C149.357 34.1437 149.999 34.4361 150.787 34.4361C151.554 34.4361 152.197 34.1437 152.715 33.5379C153.254 32.953 153.503 32.0966 153.503 30.9686C153.503 29.966 153.254 29.1514 152.736 28.5456C152.238 27.9607 151.575 27.6474 150.766 27.6474Z" fill="#2B3021"/>
<path d="M94.7148 49.4338V47.7001H95.8964V40.9113H94.7148V39.1776H103.442V42.4362H101.555V40.9113H98.4875V43.2717H100.975V45.0055H98.4875V47.7001H101.555V46.1752H103.442V49.4338H94.7148Z" fill="#2B3021"/>
<path d="M104.292 49.4339V45.9246H105.971C105.991 46.5722 106.157 47.0317 106.447 47.345C106.758 47.6375 107.09 47.8046 107.484 47.8046C107.795 47.8046 108.044 47.7002 108.251 47.4704C108.458 47.2615 108.562 46.9899 108.562 46.6975C108.562 46.3842 108.458 46.1126 108.251 45.9038C108.044 45.6949 107.67 45.4442 107.132 45.1727C105.991 44.6087 105.204 44.0865 104.81 43.6478C104.395 43.2092 104.188 42.6243 104.188 41.8723C104.188 40.9741 104.457 40.2848 104.996 39.7835C105.535 39.2821 106.157 39.0524 106.841 39.0524C107.629 39.0524 108.251 39.3657 108.665 40.0132V39.1568H110.345V42.2692H108.665C108.603 41.7887 108.458 41.4128 108.189 41.1412C107.919 40.8697 107.608 40.7443 107.256 40.7443C106.986 40.7443 106.738 40.8279 106.551 40.9741C106.365 41.1203 106.261 41.3292 106.261 41.5799C106.261 41.7887 106.344 41.9976 106.489 42.1856C106.655 42.3736 107.111 42.6452 107.857 43.0003C108.583 43.3345 109.142 43.6478 109.536 43.9194C109.93 44.1909 110.241 44.546 110.469 44.9847C110.697 45.4233 110.801 45.9246 110.801 46.4886C110.801 47.5122 110.51 48.2641 109.951 48.7863C109.391 49.2877 108.707 49.5592 107.919 49.5592C107.049 49.5592 106.385 49.225 105.909 48.5566V49.4339H104.292Z" fill="#2B3021"/>
<path d="M113.122 49.4338V47.7001H114.615V40.9113H113.122V43.2926H111.422V39.1776H120.398V43.2926H118.719V40.9113H117.185V47.7001H118.678V49.4338H113.122Z" fill="#2B3021"/>
<path d="M130.245 47.7001V49.4338H125.373V47.7001H126.638L126.161 45.9454H123.591L123.072 47.7001H124.399V49.4338H120.004V47.7001H121.227L123.155 40.9113H121.829V39.1776H128.296V40.9113H126.969L129.042 47.7001H130.245ZM125.767 44.4206L124.938 41.3291L124.047 44.4206H125.767Z" fill="#2B3021"/>
<path d="M133.624 49.4338V47.7001H134.805V40.9113H133.624V39.1776H142.35V42.4362H140.464V40.9113H137.396V43.2717H139.884V45.0055H137.396V47.7001H140.464V46.1752H142.35V49.4338H133.624Z" fill="#2B3021"/>
<path d="M142.91 49.4338V47.7001H144.32V40.9113H142.91V39.1776H148.362V40.9113H146.911V47.7001H149.834V44.525H151.761V49.4338H142.91Z" fill="#2B3021"/>
<path d="M94.5698 62.6561V60.9224H96.0623V54.1336H94.5698V52.3999H99.2546C100.25 52.3999 101.037 52.4626 101.638 52.5879C102.24 52.7132 102.82 52.9848 103.38 53.4234C103.939 53.8621 104.375 54.4261 104.706 55.1572C105.038 55.8883 105.204 56.682 105.204 57.5593C105.204 58.2695 105.079 58.9588 104.851 59.6064C104.623 60.2539 104.333 60.7761 103.981 61.173C103.649 61.5699 103.235 61.8832 102.737 62.113C102.26 62.3428 101.825 62.489 101.41 62.5725C101.017 62.6352 100.395 62.677 99.5448 62.677H94.5698V62.6561ZM98.6534 60.9224H99.2753C100.022 60.9224 100.623 60.8179 101.058 60.609C101.493 60.4001 101.846 60.045 102.115 59.5437C102.385 59.0424 102.509 58.374 102.509 57.5384C102.509 56.7656 102.385 56.0971 102.115 55.554C101.846 55.0109 101.493 54.635 101.017 54.4261C100.561 54.2172 99.9801 54.1128 99.2753 54.1128H98.6534V60.9224Z" fill="#2B3021"/>
<path d="M111.775 52.2328C113.475 52.2328 114.822 52.7341 115.817 53.7576C116.791 54.7812 117.289 56.0345 117.289 57.4967C117.289 58.9797 116.791 60.2122 115.817 61.2357C114.843 62.2592 113.495 62.7605 111.796 62.7605C110.034 62.7605 108.666 62.2383 107.712 61.1939C106.759 60.1495 106.282 58.9171 106.282 57.4967C106.282 56.0345 106.759 54.7812 107.753 53.7576C108.707 52.7341 110.054 52.2328 111.775 52.2328ZM111.775 54.0919C111.008 54.0919 110.365 54.3843 109.847 54.9692C109.308 55.554 109.059 56.4314 109.059 57.5593C109.059 58.562 109.329 59.3766 109.847 59.9824C110.365 60.5881 111.008 60.8806 111.796 60.8806C112.563 60.8806 113.205 60.5881 113.723 59.9824C114.262 59.3975 114.532 58.5411 114.532 57.4131C114.532 56.4105 114.283 55.6167 113.765 54.9901C113.247 54.4052 112.583 54.0919 111.775 54.0919Z" fill="#2B3021"/>
<path d="M118.056 62.6561V60.9224H119.465V54.1336H118.056V52.3999H123.487V54.1336H122.036V60.9224H124.958V57.7473H126.886V62.6561H118.056Z" fill="#2B3021"/>
<path d="M136.898 60.9224V62.6561H132.027V60.9224H133.291L132.815 59.1677H130.244L129.726 60.9224H131.053V62.6561H126.658V60.9224H127.881L129.809 54.1336H128.482V52.3999H134.95V54.1336H133.623L135.696 60.9224H136.898ZM132.421 57.6429L131.592 54.5514L130.7 57.6429H132.421Z" fill="#2B3021"/>
<path d="M147.201 60.9224V62.6561H144.174L141.936 58.1651H140.795V60.9224H142.039V62.6561H136.857V60.9224H138.225V54.1336H136.857V52.3999H142.827C143.946 52.3999 144.755 52.6923 145.252 53.2772C145.75 53.8621 145.998 54.5305 145.998 55.2825C145.998 56.4522 145.418 57.3087 144.278 57.8309L145.895 60.9224H147.201ZM140.795 56.5149H141.687C142.785 56.5149 143.324 56.118 143.324 55.3034C143.324 54.9065 143.2 54.6141 142.951 54.4052C142.703 54.2172 142.35 54.1128 141.915 54.1128H140.795V56.5149Z" fill="#2B3021"/>
<path d="M148.196 62.6562V60.1914H150.58V62.6562H148.196Z" fill="#2B3021"/>
<path d="M156.571 64.2227V65.8729H151.824V64.2227H152.985V57.1416H152.01V55.4914H155.182V56.3896C155.783 55.7212 156.467 55.387 157.234 55.387C158.146 55.387 158.872 55.763 159.39 56.5149C159.908 57.2669 160.178 58.1442 160.178 59.1469C160.178 60.2122 159.908 61.0895 159.369 61.7788C158.83 62.4681 158.105 62.8232 157.213 62.8232C156.467 62.8232 155.804 62.5308 155.203 61.925V64.2436H156.571V64.2227ZM157.939 59.1051C157.939 58.4784 157.814 58.0189 157.566 57.7056C157.317 57.3922 156.985 57.246 156.571 57.246C156.156 57.246 155.824 57.4131 155.576 57.7265C155.327 58.0398 155.182 58.5202 155.182 59.1469C155.182 59.7109 155.306 60.1704 155.576 60.5046C155.824 60.8597 156.177 61.0268 156.591 61.0268C156.985 61.0268 157.317 60.8806 157.566 60.5673C157.794 60.2331 157.939 59.7526 157.939 59.1051Z" fill="#2B3021"/>
<path d="M166.417 60.5048L168.117 61.0688C167.391 62.2385 166.272 62.8234 164.758 62.8234C163.535 62.8234 162.603 62.4892 161.919 61.8207C161.234 61.1523 160.903 60.275 160.903 59.2097C160.903 58.1026 161.255 57.1835 161.96 56.4524C162.665 55.7213 163.556 55.3453 164.655 55.3453C165.442 55.3453 166.127 55.5542 166.707 55.972C167.287 56.3898 167.681 56.8911 167.909 57.5177C168.137 58.1235 168.241 58.8128 168.241 59.5648H163.1C163.142 60.2123 163.328 60.6719 163.701 60.9434C164.074 61.215 164.447 61.3403 164.862 61.3403C165.36 61.3403 165.878 61.0479 166.417 60.5048ZM166.002 58.2906C165.961 57.8937 165.795 57.5595 165.546 57.2671C165.297 56.9955 164.966 56.8493 164.53 56.8493C163.722 56.8493 163.245 57.3297 163.121 58.2906H166.002Z" fill="#2B3021"/>
<g clip-path="url(#clip0_223_8366)">
<path d="M169.031 9.69513V2.48657H172.097C172.866 2.48657 173.426 2.55098 173.774 2.67981C174.123 2.80943 174.403 3.03924 174.613 3.37164C174.823 3.70245 174.929 4.08255 174.929 4.50799C174.929 5.04794 174.769 5.49484 174.451 5.84712C174.134 6.20019 173.657 6.42126 173.025 6.5135C173.34 6.6964 173.601 6.89918 173.804 7.11866C174.009 7.33654 174.284 7.72858 174.634 8.28841L175.513 9.69513H173.771L172.719 8.12698C172.346 7.56477 172.09 7.21249 171.953 7.06617C171.814 6.92065 171.668 6.82045 171.514 6.76718C171.361 6.71151 171.116 6.68527 170.781 6.68527H170.486V9.69513H169.031ZM170.486 5.5354H171.565C172.261 5.5354 172.698 5.50598 172.871 5.44634C173.044 5.38669 173.181 5.2865 173.28 5.14177C173.379 4.99704 173.427 4.81812 173.427 4.60182C173.427 4.35849 173.362 4.16287 173.232 4.01337C173.104 3.86546 172.921 3.76924 172.684 3.73028C172.567 3.71517 172.214 3.70642 171.623 3.70642H170.486V5.5354Z" fill="#2B3021"/>
<path d="M178.249 6.36643C178.249 9.88125 175.398 12.7321 171.883 12.7321C168.368 12.7321 165.517 9.88205 165.517 6.36643C165.517 2.85082 168.368 0 171.883 0C175.399 0 178.249 2.85082 178.249 6.36643ZM171.883 11.7452C174.85 11.7452 177.262 9.33335 177.262 6.36643C177.262 3.39951 174.85 0.986853 171.883 0.986853C168.916 0.986853 166.504 3.39951 166.504 6.36643C166.504 9.33335 168.916 11.7452 171.883 11.7452Z" fill="#2B3021"/>
</g>
<defs>
<clipPath id="clip0_223_8366">
<rect width="12.7321" height="12.7321" fill="white" transform="translate(165.517)"/>
</clipPath>
</defs>
</svg>
